<svg width="116" height="34" viewBox="0 0 116 34" fill="none" xmlns="http://www.w3.org/2000/svg">
<g clip-path="url(#clip0_1053_2681)">
<path d="M113.947 22.5027H114.173C114.27 22.5027 114.336 22.51 114.371 22.5229C114.406 22.5376 114.435 22.5578 114.456 22.5872C114.476 22.6166 114.485 22.6478 114.485 22.6845C114.485 22.7414 114.465 22.7855 114.423 22.8204C114.38 22.8553 114.301 22.8718 114.187 22.8718H113.947V22.5027ZM113.947 23.5532V23.0371H114.062C114.132 23.0371 114.184 23.05 114.22 23.0794C114.272 23.1179 114.34 23.2116 114.426 23.3622L114.535 23.5532H114.773L114.625 23.3144C114.553 23.2024 114.494 23.1216 114.445 23.0739C114.419 23.0481 114.384 23.0279 114.342 23.0096C114.446 23.0022 114.531 22.9655 114.595 22.8994C114.659 22.8333 114.691 22.7561 114.691 22.668C114.691 22.6055 114.672 22.5468 114.634 22.4898C114.595 22.4347 114.546 22.3943 114.481 22.3723C114.417 22.3503 114.314 22.3392 114.171 22.3392H113.754V23.5532H113.949H113.947ZM114.707 22.1115C114.858 22.1923 114.974 22.308 115.058 22.4586C115.143 22.6092 115.185 22.7653 115.185 22.9288C115.185 23.0922 115.143 23.2465 115.06 23.3953C114.977 23.544 114.862 23.6597 114.713 23.7424C114.564 23.825 114.408 23.8672 114.246 23.8672C114.085 23.8672 113.928 23.825 113.78 23.7424C113.631 23.6597 113.515 23.544 113.431 23.3953C113.348 23.2465 113.306 23.0922 113.306 22.9288C113.306 22.7653 113.348 22.6092 113.432 22.4586C113.517 22.308 113.634 22.1923 113.783 22.1115C113.932 22.0307 114.086 21.9903 114.244 21.9903C114.402 21.9903 114.555 22.0307 114.705 22.1115H114.707ZM113.693 21.9481C113.513 22.0454 113.374 22.1831 113.273 22.3631C113.172 22.5431 113.12 22.7323 113.12 22.9269C113.12 23.1216 113.17 23.3071 113.269 23.4852C113.368 23.6634 113.508 23.803 113.686 23.9021C113.864 24.0013 114.051 24.0509 114.246 24.0509C114.441 24.0509 114.628 24.0013 114.806 23.9021C114.985 23.803 115.124 23.6652 115.223 23.4852C115.323 23.3071 115.372 23.1198 115.372 22.9269C115.372 22.7341 115.323 22.5431 115.222 22.3631C115.121 22.1831 114.981 22.0436 114.801 21.9481C114.621 21.8507 114.437 21.803 114.248 21.803C114.059 21.803 113.875 21.8507 113.695 21.9481H113.693Z" fill="#231F20"/>
<path d="M39.9014 24.0841V10.3652H49.1467V12.7564H42.8019V16.0254H48.6709V18.4166H42.8019V21.693H49.1743V24.0841H39.9014Z" fill="black"/>
<path d="M63.3005 10.3652V24.0841H60.7949L54.8248 15.4488H54.7238V24.0841H51.8232V10.3652H54.3692L60.2916 18.9933H60.4128V10.3652H63.3005Z" fill="black"/>
<path d="M65.168 12.7564V10.3652H76.8013L75.7102 12.7564H72.2365V24.0841H69.3691V12.7564H65.168Z" fill="black"/>
<path d="M85.2383 24.0841H88.3464L83.6163 10.3652H79.8781L75.1406 24.0841H78.2487L79.2664 20.9565H84.2206L85.2365 24.0841H85.2383ZM80.0048 18.6921L81.6948 13.5002H81.8014L83.4877 18.6921H80.0048Z" fill="black"/>
<path d="M101.46 15.1676H98.5249C98.4717 14.7874 98.3614 14.4495 98.1961 14.152C98.0308 13.8545 97.8195 13.601 97.5605 13.3917C97.3015 13.1823 97.0039 13.0207 96.6659 12.9087C96.3279 12.7966 95.9642 12.7415 95.5711 12.7415C94.8602 12.7415 94.243 12.9179 93.7158 13.2668C93.1886 13.6176 92.7808 14.1263 92.4887 14.7948C92.1985 15.4633 92.0534 16.2714 92.0534 17.2227C92.0534 18.174 92.2003 19.0225 92.4924 19.6873C92.7845 20.3521 93.1941 20.8553 93.7213 21.1951C94.2485 21.5349 94.8584 21.7038 95.5509 21.7038C95.9385 21.7038 96.3004 21.6524 96.6329 21.5495C96.9654 21.4467 97.2611 21.2961 97.5201 21.0978C97.7791 20.8994 97.994 20.657 98.1667 20.3705C98.3394 20.084 98.4588 19.7589 98.5249 19.3916L101.46 19.4045C101.385 20.0344 101.196 20.6405 100.895 21.2226C100.593 21.8048 100.189 22.3264 99.6822 22.7837C99.1752 23.241 98.5727 23.6028 97.8728 23.8691C97.1729 24.1354 96.3849 24.2676 95.505 24.2676C94.2816 24.2676 93.1886 23.9903 92.226 23.4375C91.2635 22.8847 90.5048 22.0821 89.9482 21.0335C89.3916 19.9848 89.1143 18.7139 89.1143 17.2227C89.1143 15.7314 89.3953 14.4532 89.9593 13.4045C90.5214 12.3559 91.2855 11.5533 92.2518 11.0023C93.2162 10.4514 94.3018 10.1741 95.5087 10.1741C96.3041 10.1741 97.0425 10.2861 97.724 10.5083C98.4055 10.7305 99.0099 11.0574 99.5371 11.4835C100.064 11.9096 100.494 12.4312 100.827 13.0482C101.159 13.6635 101.372 14.3705 101.466 15.1658" fill="black"/>
<path d="M103.022 12.7564C102.704 11.4635 101.474 10.3652 101.474 10.3652H114.292V12.7564H110.091V24.0841H107.223V12.7564H103.022Z" fill="black"/>
<path d="M16.9798 0.580078C7.80606 0.580078 0.370117 8.01436 0.370117 17.186C0.370117 26.3576 7.80606 33.7919 16.9798 33.7919C26.1535 33.7919 33.5894 26.3576 33.5894 17.186C33.5894 8.01436 26.1516 0.580078 16.9798 0.580078Z" fill="black"/>
<path d="M24.2451 21.467H9.71484V23.9886H24.2451V21.467Z" fill="#00A9A1"/>
<path d="M24.2451 15.9243H9.71484V18.4477H24.2451V15.9243Z" fill="#00A9A1"/>
<path d="M24.2451 10.3816H9.71484V12.9031H24.2451V10.3816Z" fill="#00A9A1"/>
</g>
<defs>
<clipPath id="clip0_1053_2681">
<rect width="115" height="33.21" fill="white" transform="translate(0.370117 0.580078)"/>
</clipPath>
</defs>
</svg>
