<svg width="156" height="46" viewBox="0 0 156 46" fill="none" xmlns="http://www.w3.org/2000/svg">
<path d="M153.321 30.24H153.617C153.74 30.24 153.839 30.24 153.888 30.265C153.937 30.29 153.962 30.315 154.011 30.34C154.036 30.39 154.06 30.415 154.06 30.465C154.06 30.54 154.036 30.615 153.987 30.64C153.937 30.69 153.814 30.715 153.666 30.715H153.346V30.24H153.321ZM153.321 31.665V30.965H153.469C153.568 30.965 153.642 30.99 153.691 31.015C153.765 31.065 153.839 31.19 153.962 31.39L154.11 31.64H154.43L154.233 31.315C154.134 31.165 154.06 31.04 153.987 30.99C153.962 30.965 153.913 30.915 153.839 30.89C153.987 30.89 154.085 30.84 154.184 30.74C154.258 30.64 154.307 30.54 154.307 30.415C154.307 30.34 154.282 30.24 154.233 30.165C154.184 30.09 154.11 30.04 154.036 30.015C153.962 29.99 153.814 29.965 153.617 29.965H153.05V31.615H153.321V31.665ZM154.356 29.715C154.553 29.815 154.726 29.99 154.824 30.19C154.947 30.39 154.997 30.615 154.997 30.84C154.997 31.065 154.947 31.265 154.824 31.465C154.726 31.665 154.553 31.815 154.356 31.94C154.159 32.065 153.937 32.115 153.74 32.115C153.519 32.115 153.321 32.065 153.124 31.94C152.927 31.815 152.78 31.665 152.656 31.465C152.533 31.265 152.484 31.04 152.484 30.84C152.484 30.615 152.533 30.415 152.656 30.19C152.78 29.99 152.927 29.815 153.124 29.715C153.321 29.615 153.543 29.54 153.74 29.54C153.937 29.54 154.159 29.615 154.356 29.715ZM153.001 29.49C152.755 29.615 152.582 29.815 152.435 30.065C152.311 30.315 152.238 30.565 152.238 30.84C152.238 31.115 152.311 31.365 152.435 31.59C152.558 31.84 152.755 32.015 153.001 32.165C153.248 32.29 153.494 32.365 153.74 32.365C154.011 32.365 154.258 32.29 154.479 32.165C154.726 32.04 154.898 31.84 155.046 31.59C155.169 31.34 155.243 31.09 155.243 30.84C155.243 30.565 155.169 30.315 155.046 30.065C154.923 29.815 154.726 29.64 154.479 29.49C154.233 29.365 153.987 29.29 153.74 29.29C153.469 29.29 153.223 29.365 153.001 29.49Z" fill="white"/>
<path d="M54.0222 32.3903V13.7153H66.4377V16.9653H57.9143V21.4153H65.7972V24.6903H57.9143V29.1403H66.4623V32.3903H54.0222Z" fill="white"/>
<path d="M85.4058 13.7153V32.3903H82.0556L74.0495 20.6403H73.9017V32.3903H70.0096V13.7153H73.4337L81.3905 25.4653H81.5383V13.7153H85.4058Z" fill="white"/>
<path d="M87.9185 16.9653V13.7153H103.512L102.058 16.9653H97.4025V32.3903H93.5596V16.9653H87.9185Z" fill="white"/>
<path d="M114.843 32.3903H119.006L112.651 13.7153H107.626L101.27 32.3903H105.433L106.788 28.1403H113.439L114.843 32.3903ZM107.823 25.0653L110.089 17.9903H110.237L112.503 25.0653H107.823Z" fill="white"/>
<path d="M136.595 20.2652H132.654C132.58 19.7402 132.432 19.2902 132.21 18.8902C131.989 18.4902 131.693 18.1402 131.348 17.8652C131.003 17.5902 130.609 17.3652 130.141 17.2152C129.698 17.0652 129.205 16.9902 128.663 16.9902C127.702 16.9902 126.889 17.2402 126.175 17.7152C125.461 18.1902 124.919 18.8902 124.524 19.7902C124.13 20.6902 123.933 21.7902 123.933 23.0902C123.933 24.4152 124.13 25.5402 124.524 26.4402C124.919 27.3402 125.461 28.0402 126.175 28.4902C126.889 28.9402 127.702 29.1902 128.638 29.1902C129.156 29.1902 129.648 29.1152 130.092 28.9902C130.535 28.8402 130.929 28.6402 131.274 28.3652C131.619 28.0902 131.915 27.7652 132.136 27.3652C132.358 26.9652 132.53 26.5402 132.629 26.0402L136.57 26.0652C136.472 26.9152 136.226 27.7402 135.807 28.5402C135.413 29.3402 134.871 30.0402 134.181 30.6652C133.491 31.2902 132.703 31.7902 131.767 32.1402C130.831 32.4902 129.771 32.6902 128.589 32.6902C126.939 32.6902 125.485 32.3152 124.18 31.5652C122.899 30.8152 121.864 29.7152 121.125 28.2902C120.386 26.8652 120.016 25.1402 120.016 23.0902C120.016 21.0652 120.386 19.3152 121.15 17.8902C121.913 16.4652 122.923 15.3652 124.229 14.6152C125.534 13.8652 126.988 13.4902 128.589 13.4902C129.648 13.4902 130.634 13.6402 131.57 13.9402C132.481 14.2402 133.294 14.6902 134.008 15.2652C134.723 15.8402 135.289 16.5652 135.733 17.3902C136.176 18.2152 136.472 19.1652 136.595 20.2652Z" fill="white"/>
<path d="M138.689 16.9653C138.27 15.2153 136.62 13.7153 136.62 13.7153H153.814V16.9653H148.173V32.3903H144.305V16.9653H138.689Z" fill="white"/>
<path d="M153.321 30.24H153.617C153.74 30.24 153.839 30.24 153.888 30.265C153.937 30.29 153.962 30.315 154.011 30.34C154.036 30.39 154.06 30.415 154.06 30.465C154.06 30.54 154.036 30.615 153.987 30.64C153.937 30.69 153.814 30.715 153.666 30.715H153.346V30.24H153.321ZM153.321 31.665V30.965H153.469C153.568 30.965 153.642 30.99 153.691 31.015C153.765 31.065 153.839 31.19 153.962 31.39L154.11 31.64H154.43L154.233 31.315C154.134 31.165 154.06 31.04 153.987 30.99C153.962 30.965 153.913 30.915 153.839 30.89C153.987 30.89 154.085 30.84 154.184 30.74C154.258 30.64 154.307 30.54 154.307 30.415C154.307 30.34 154.282 30.24 154.233 30.165C154.184 30.09 154.11 30.04 154.036 30.015C153.962 29.99 153.814 29.965 153.617 29.965H153.05V31.615H153.321V31.665ZM154.356 29.715C154.553 29.815 154.726 29.99 154.824 30.19C154.947 30.39 154.997 30.615 154.997 30.84C154.997 31.065 154.947 31.265 154.824 31.465C154.726 31.665 154.553 31.815 154.356 31.94C154.159 32.065 153.937 32.115 153.74 32.115C153.519 32.115 153.321 32.065 153.124 31.94C152.927 31.815 152.78 31.665 152.656 31.465C152.533 31.265 152.484 31.04 152.484 30.84C152.484 30.615 152.533 30.415 152.656 30.19C152.78 29.99 152.927 29.815 153.124 29.715C153.321 29.615 153.543 29.54 153.74 29.54C153.937 29.54 154.159 29.615 154.356 29.715ZM153.001 29.49C152.755 29.615 152.582 29.815 152.435 30.065C152.311 30.315 152.238 30.565 152.238 30.84C152.238 31.115 152.311 31.365 152.435 31.59C152.558 31.84 152.755 32.015 153.001 32.165C153.248 32.29 153.494 32.365 153.74 32.365C154.011 32.365 154.258 32.29 154.479 32.165C154.726 32.04 154.898 31.84 155.046 31.59C155.169 31.34 155.243 31.09 155.243 30.84C155.243 30.565 155.169 30.315 155.046 30.065C154.923 29.815 154.726 29.64 154.479 29.49C154.233 29.365 153.987 29.29 153.74 29.29C153.469 29.29 153.223 29.365 153.001 29.49Z" fill="white"/>
<path d="M54.0222 32.3903V13.7153H66.4377V16.9653H57.9143V21.4153H65.7972V24.6903H57.9143V29.1403H66.4623V32.3903H54.0222Z" fill="white"/>
<path d="M85.4058 13.7153V32.3903H82.0556L74.0495 20.6403H73.9017V32.3903H70.0096V13.7153H73.4337L81.3905 25.4653H81.5383V13.7153H85.4058Z" fill="white"/>
<path d="M87.9185 16.9653V13.7153H103.512L102.058 16.9653H97.4025V32.3903H93.5596V16.9653H87.9185Z" fill="white"/>
<path d="M114.843 32.3903H119.006L112.651 13.7153H107.626L101.27 32.3903H105.433L106.788 28.1403H113.439L114.843 32.3903ZM107.823 25.0653L110.089 17.9903H110.237L112.503 25.0653H107.823Z" fill="white"/>
<path d="M136.595 20.2652H132.654C132.58 19.7402 132.432 19.2902 132.21 18.8902C131.989 18.4902 131.693 18.1402 131.348 17.8652C131.003 17.5902 130.609 17.3652 130.141 17.2152C129.698 17.0652 129.205 16.9902 128.663 16.9902C127.702 16.9902 126.889 17.2402 126.175 17.7152C125.461 18.1902 124.919 18.8902 124.524 19.7902C124.13 20.6902 123.933 21.7902 123.933 23.0902C123.933 24.4152 124.13 25.5402 124.524 26.4402C124.919 27.3402 125.461 28.0402 126.175 28.4902C126.889 28.9402 127.702 29.1902 128.638 29.1902C129.156 29.1902 129.648 29.1152 130.092 28.9902C130.535 28.8402 130.929 28.6402 131.274 28.3652C131.619 28.0902 131.915 27.7652 132.136 27.3652C132.358 26.9652 132.53 26.5402 132.629 26.0402L136.57 26.0652C136.472 26.9152 136.226 27.7402 135.807 28.5402C135.413 29.3402 134.871 30.0402 134.181 30.6652C133.491 31.2902 132.703 31.7902 131.767 32.1402C130.831 32.4902 129.771 32.6902 128.589 32.6902C126.939 32.6902 125.485 32.3152 124.18 31.5652C122.899 30.8152 121.864 29.7152 121.125 28.2902C120.386 26.8652 120.016 25.1402 120.016 23.0902C120.016 21.0652 120.386 19.3152 121.15 17.8902C121.913 16.4652 122.923 15.3652 124.229 14.6152C125.534 13.8652 126.988 13.4902 128.589 13.4902C129.648 13.4902 130.634 13.6402 131.57 13.9402C132.481 14.2402 133.294 14.6902 134.008 15.2652C134.723 15.8402 135.289 16.5652 135.733 17.3902C136.176 18.2152 136.472 19.1652 136.595 20.2652Z" fill="white"/>
<path d="M138.689 16.9653C138.27 15.2153 136.62 13.7153 136.62 13.7153H153.814V16.9653H148.173V32.3903H144.305V16.9653H138.689Z" fill="white"/>
<path d="M23.2298 0.390137C10.9375 0.390137 0.960724 10.5151 0.960724 22.9901C0.960724 35.4651 10.9375 45.5901 23.2298 45.5901C35.5221 45.5901 45.4988 35.4651 45.4988 22.9901C45.4988 10.5151 35.5221 0.390137 23.2298 0.390137ZM32.9602 32.2651H13.4748V28.8401H32.9602V32.2651ZM32.9602 24.7151H13.4748V21.2901H32.9602V24.7151ZM32.9602 17.1651H13.4748V13.7401H32.9602V17.1651Z" fill="white"/>
</svg>
