<svg xmlns="http://www.w3.org/2000/svg" width="130" height="39" viewBox="0 0 130 39" fill="none">
<g clip-path="url(#clip0_1493_2740)">
<path d="M128.39 25.7351H128.645C128.755 25.7351 128.83 25.7434 128.869 25.758C128.909 25.7746 128.942 25.7974 128.965 25.8306C128.988 25.8638 128.998 25.8991 128.998 25.9406C128.998 26.005 128.975 26.0548 128.927 26.0942C128.88 26.1337 128.79 26.1523 128.662 26.1523H128.39V25.7351ZM128.39 26.9224V26.3392H128.521C128.599 26.3392 128.658 26.3537 128.699 26.3869C128.757 26.4305 128.834 26.5363 128.932 26.7065L129.054 26.9224H129.324L129.156 26.6526C129.075 26.526 129.008 26.4346 128.952 26.3807C128.923 26.3516 128.884 26.3288 128.836 26.308C128.954 26.2997 129.05 26.2582 129.123 26.1835C129.195 26.1088 129.23 26.0216 129.23 25.922C129.23 25.8514 129.21 25.785 129.166 25.7206C129.122 25.6583 129.066 25.6127 128.994 25.5878C128.921 25.5629 128.805 25.5504 128.643 25.5504H128.172V26.9224H128.392H128.39ZM129.249 25.293C129.419 25.3844 129.55 25.5151 129.646 25.6853C129.741 25.8555 129.789 26.032 129.789 26.2167C129.789 26.4014 129.741 26.5758 129.648 26.7439C129.554 26.912 129.423 27.0428 129.255 27.1362C129.087 27.2296 128.911 27.2773 128.728 27.2773C128.545 27.2773 128.369 27.2296 128.201 27.1362C128.033 27.0428 127.902 26.912 127.807 26.7439C127.713 26.5758 127.665 26.4014 127.665 26.2167C127.665 26.032 127.713 25.8555 127.809 25.6853C127.904 25.5151 128.037 25.3844 128.205 25.293C128.373 25.2017 128.548 25.156 128.726 25.156C128.905 25.156 129.077 25.2017 129.247 25.293H129.249ZM128.103 25.1083C127.9 25.2183 127.742 25.374 127.628 25.5774C127.514 25.7808 127.456 25.9946 127.456 26.2146C127.456 26.4346 127.512 26.6443 127.624 26.8456C127.736 27.0469 127.894 27.2047 128.095 27.3168C128.296 27.4288 128.508 27.4849 128.728 27.4849C128.948 27.4849 129.16 27.4288 129.361 27.3168C129.563 27.2047 129.72 27.049 129.832 26.8456C129.944 26.6443 130 26.4326 130 26.2146C130 25.9967 129.944 25.7808 129.83 25.5774C129.716 25.374 129.558 25.2162 129.355 25.1083C129.152 24.9983 128.944 24.9443 128.73 24.9443C128.516 24.9443 128.309 24.9983 128.105 25.1083H128.103Z" fill="white"/>
<path d="M44.7238 27.5222V12.0173H55.1724V14.7198H48.0012V18.4144H54.6349V21.1168H48.0012V24.8197H55.2015V27.5222H44.7238Z" fill="white"/>
<path d="M71.163 12.0173V27.5222H68.3319L61.5861 17.7626H61.4719V27.5222H58.1945V12.0173H61.0714L67.7652 21.7686H67.9001V12.0173H71.163Z" fill="white"/>
<path d="M73.276 14.7198V12.0173H86.4208L85.1879 14.7198H81.2629V27.5222H78.0229V14.7198H73.276Z" fill="white"/>
<path d="M95.9542 27.5222H99.4661L94.1214 12.0173H89.8975L84.5445 27.5222H88.0564L89.2063 23.9874H94.8043L95.9521 27.5222H95.9542ZM90.0407 21.4282L91.9503 15.5604H92.0707L93.9761 21.4282H90.0407Z" fill="white"/>
<path d="M114.282 17.4451H110.965C110.905 17.0155 110.78 16.6335 110.593 16.2973C110.407 15.961 110.168 15.6746 109.875 15.438C109.583 15.2014 109.246 15.0187 108.864 14.8921C108.483 14.7655 108.072 14.7032 107.627 14.7032C106.824 14.7032 106.127 14.9025 105.531 15.2969C104.935 15.6933 104.475 16.2682 104.145 17.0238C103.817 17.7793 103.653 18.6926 103.653 19.7677C103.653 20.8429 103.819 21.8018 104.149 22.5532C104.479 23.3046 104.942 23.8733 105.537 24.2573C106.133 24.6413 106.822 24.8322 107.605 24.8322C108.043 24.8322 108.451 24.7741 108.827 24.6579C109.203 24.5416 109.537 24.3714 109.83 24.1473C110.122 23.9231 110.365 23.6491 110.56 23.3253C110.755 23.0015 110.89 22.6342 110.965 22.219L114.282 22.2336C114.197 22.9455 113.983 23.6305 113.643 24.2884C113.302 24.9464 112.846 25.5359 112.273 26.0527C111.7 26.5695 111.019 26.9784 110.228 27.2794C109.437 27.5803 108.547 27.7298 107.553 27.7298C106.17 27.7298 104.935 27.4164 103.848 26.7916C102.76 26.1669 101.903 25.2598 101.274 24.0746C100.645 22.8895 100.332 21.4531 100.332 19.7677C100.332 18.0823 100.649 16.6377 101.286 15.4525C101.922 14.2673 102.785 13.3603 103.877 12.7376C104.966 12.1149 106.193 11.8015 107.557 11.8015C108.456 11.8015 109.29 11.9281 110.06 12.1793C110.83 12.4304 111.513 12.7999 112.109 13.2814C112.704 13.763 113.19 14.3524 113.566 15.0499C113.941 15.7452 114.182 16.5443 114.288 17.443" fill="white"/>
<path d="M116.046 14.7198C115.687 13.2586 114.296 12.0173 114.296 12.0173H128.78V14.7198H124.033V27.5222H120.793V14.7198H116.046Z" fill="white"/>
<path d="M128.39 25.7351H128.645C128.755 25.7351 128.83 25.7434 128.869 25.758C128.909 25.7746 128.942 25.7974 128.965 25.8306C128.988 25.8638 128.998 25.8991 128.998 25.9406C128.998 26.005 128.975 26.0548 128.927 26.0942C128.88 26.1337 128.79 26.1523 128.662 26.1523H128.39V25.7351ZM128.39 26.9224V26.3392H128.521C128.599 26.3392 128.658 26.3537 128.699 26.3869C128.757 26.4305 128.834 26.5363 128.932 26.7065L129.054 26.9224H129.324L129.156 26.6526C129.075 26.526 129.008 26.4346 128.952 26.3807C128.923 26.3516 128.884 26.3288 128.836 26.308C128.954 26.2997 129.05 26.2582 129.123 26.1835C129.195 26.1088 129.23 26.0216 129.23 25.922C129.23 25.8514 129.21 25.785 129.166 25.7206C129.122 25.6583 129.066 25.6127 128.994 25.5878C128.921 25.5629 128.805 25.5504 128.643 25.5504H128.172V26.9224H128.392H128.39ZM129.249 25.293C129.419 25.3844 129.55 25.5151 129.646 25.6853C129.741 25.8555 129.789 26.032 129.789 26.2167C129.789 26.4014 129.741 26.5758 129.648 26.7439C129.554 26.912 129.423 27.0428 129.255 27.1362C129.087 27.2296 128.911 27.2773 128.728 27.2773C128.545 27.2773 128.369 27.2296 128.201 27.1362C128.033 27.0428 127.902 26.912 127.807 26.7439C127.713 26.5758 127.665 26.4014 127.665 26.2167C127.665 26.032 127.713 25.8555 127.809 25.6853C127.904 25.5151 128.037 25.3844 128.205 25.293C128.373 25.2017 128.548 25.156 128.726 25.156C128.905 25.156 129.077 25.2017 129.247 25.293H129.249ZM128.103 25.1083C127.9 25.2183 127.742 25.374 127.628 25.5774C127.514 25.7808 127.456 25.9946 127.456 26.2146C127.456 26.4346 127.512 26.6443 127.624 26.8456C127.736 27.0469 127.894 27.2047 128.095 27.3168C128.296 27.4288 128.508 27.4849 128.728 27.4849C128.948 27.4849 129.16 27.4288 129.361 27.3168C129.563 27.2047 129.72 27.049 129.832 26.8456C129.944 26.6443 130 26.4326 130 26.2146C130 25.9967 129.944 25.7808 129.83 25.5774C129.716 25.374 129.558 25.2162 129.355 25.1083C129.152 24.9983 128.944 24.9443 128.73 24.9443C128.516 24.9443 128.309 24.9983 128.105 25.1083H128.103Z" fill="white"/>
<path d="M44.7238 27.5222V12.0173H55.1724V14.7198H48.0012V18.4144H54.6349V21.1168H48.0012V24.8197H55.2015V27.5222H44.7238Z" fill="white"/>
<path d="M71.163 12.0173V27.5222H68.3319L61.5861 17.7626H61.4719V27.5222H58.1945V12.0173H61.0714L67.7652 21.7686H67.9001V12.0173H71.163Z" fill="white"/>
<path d="M73.276 14.7198V12.0173H86.4208L85.1879 14.7198H81.2629V27.5222H78.0229V14.7198H73.276Z" fill="white"/>
<path d="M95.9542 27.5222H99.4661L94.1214 12.0173H89.8975L84.5445 27.5222H88.0564L89.2063 23.9874H94.8043L95.9521 27.5222H95.9542ZM90.0407 21.4282L91.9503 15.5604H92.0707L93.9761 21.4282H90.0407Z" fill="white"/>
<path d="M114.282 17.4451H110.965C110.905 17.0155 110.78 16.6335 110.593 16.2973C110.407 15.961 110.168 15.6746 109.875 15.438C109.583 15.2014 109.246 15.0187 108.864 14.8921C108.483 14.7655 108.072 14.7032 107.627 14.7032C106.824 14.7032 106.127 14.9025 105.531 15.2969C104.935 15.6933 104.475 16.2682 104.145 17.0238C103.817 17.7793 103.653 18.6926 103.653 19.7677C103.653 20.8429 103.819 21.8018 104.149 22.5532C104.479 23.3046 104.942 23.8733 105.537 24.2573C106.133 24.6413 106.822 24.8322 107.605 24.8322C108.043 24.8322 108.451 24.7741 108.827 24.6579C109.203 24.5416 109.537 24.3714 109.83 24.1473C110.122 23.9231 110.365 23.6491 110.56 23.3253C110.755 23.0015 110.89 22.6342 110.965 22.219L114.282 22.2336C114.197 22.9455 113.983 23.6305 113.643 24.2884C113.302 24.9464 112.846 25.5359 112.273 26.0527C111.7 26.5695 111.019 26.9784 110.228 27.2794C109.437 27.5803 108.547 27.7298 107.553 27.7298C106.17 27.7298 104.935 27.4164 103.848 26.7916C102.76 26.1669 101.903 25.2598 101.274 24.0746C100.645 22.8895 100.332 21.4531 100.332 19.7677C100.332 18.0823 100.649 16.6377 101.286 15.4525C101.922 14.2673 102.785 13.3603 103.877 12.7376C104.966 12.1149 106.193 11.8015 107.557 11.8015C108.456 11.8015 109.29 11.9281 110.06 12.1793C110.83 12.4304 111.513 12.7999 112.109 13.2814C112.704 13.763 113.19 14.3524 113.566 15.0499C113.941 15.7452 114.182 16.5443 114.288 17.443" fill="white"/>
<path d="M116.046 14.7198C115.687 13.2586 114.296 12.0173 114.296 12.0173H128.78V14.7198H124.033V27.5222H120.793V14.7198H116.046Z" fill="white"/>
<path d="M18.7682 0.958496C8.40258 0.958496 0.000488281 9.36059 0.000488281 19.7262C0.000488281 30.0918 8.40258 38.4939 18.7682 38.4939C29.1338 38.4939 37.5359 30.0918 37.5359 19.7262C37.5359 9.36059 29.1318 0.958496 18.7682 0.958496ZM26.9773 27.4164H10.5591V24.5666H26.9773V27.4164ZM26.9773 21.1522H10.5591V18.3003H26.9773V21.1522ZM26.9773 14.888H10.5591V12.0381H26.9773V14.888Z" fill="white"/>
</g>
<defs>
<clipPath id="clip0_1493_2740">
<rect width="130" height="37.5334" fill="white" transform="translate(0.000488281 0.958496)"/>
</clipPath>
</defs>
</svg>